Coordinates
version=1
nRows=22
nColumns=26
inDegrees=yes

Units are S.I. units (second, meters, Newtons, ...)
Angles are in degrees.

endheader
time	pelvis_tilt	pelvis_list	pelvis_rotation	pelvis_tx	pelvis_ty	pelvis_tz	hip_flexion_r	hip_adduction_r	hip_rotation_r	knee_angle_r	knee_angle_r_beta	ankle_angle_r	subtalar_angle_r	mtp_angle_r	hip_flexion_l	hip_adduction_l	hip_rotation_l	knee_angle_l	knee_angle_l_beta	ankle_angle_l	subtalar_angle_l	mtp_angle_l	lumbar_extension	lumbar_bending	lumbar_rotation
    187.06970050	    -17.41793613	      0.97068079	     -2.95370211	      0.21923065	      1.03004565	      0.18311839	     42.28134634	      2.94332084	     -3.31505372	     12.48376473	     12.48376473	      7.07057117	      7.41112454	      0.00000000	     -7.60310763	      5.21875590	     -0.10272647	     30.70856447	     30.70856447	    -17.56159271	    -14.99666342	      0.00000000	      8.69183377	      0.17260062	     -9.57179717
    187.07970050	    -16.81324392	      1.21159976	     -3.32474483	      0.21945887	      1.02742333	      0.18375126	     41.40850663	      3.08647192	     -3.80885853	     12.39242291	     12.39242291	      7.43587625	      7.03059629	      0.00000000	     -6.82589458	      5.61278312	     -0.16977158	     35.48149434	     35.48149434	    -17.60635214	    -15.73103304	      0.00000000	      7.78479363	      0.05441785	     -9.29880273
    187.08970050	    -16.16502728	      1.51524002	     -3.56983959	      0.21936518	      1.02392940	      0.18357384	     40.62474829	      3.01836526	     -4.09866873	     13.32334892	     13.32334892	      7.64057160	      5.75243160	      0.00000000	     -5.67733060	      6.13371662	      0.05345051	     40.82105323	     40.82105323	    -17.63386886	    -16.45092489	      0.00000000	      6.78533768	     -0.08880369	     -9.15542308
    187.09970050	    -15.57815112	      1.77507218	     -3.84350609	      0.21879860	      1.01946714	      0.18312195	     39.80028539	      3.00567100	     -3.40501574	     14.64505560	     14.64505560	      7.52974268	      4.02932153	      0.00000000	     -4.07826387	      6.58782089	      0.09040851	     46.54804722	     46.54804722	    -17.65996217	    -17.24426537	      0.00000000	      5.81715821	     -0.15857609	     -8.91409197
    187.10970050	    -15.02960398	      1.54530422	     -4.08236971	      0.21782155	      1.01425383	      0.18273529	     39.01508375	      3.32529878	     -2.91779313	     16.54867299	     16.54867299	      6.77248023	      2.74495547	      0.00000000	     -2.17914278	      6.36610934	     -0.17875718	     52.51339398	     52.51339398	    -17.60675054	    -18.18585349	      0.00000000	      4.83210517	      0.33820243	     -8.68607101
    187.11970050	    -14.64675640	      1.08313250	     -4.28760451	      0.21635386	      1.00796325	      0.18249073	     38.63514745	      3.82868091	     -2.91022501	     19.35182892	     19.35182892	      4.25854837	      0.68956736	      0.00000000	      0.04113767	      5.73478338	     -0.55924349	     58.54609208	     58.54609208	    -16.95442037	    -19.07875201	      0.00000000	      3.98219019	      1.09529987	     -8.34948135
    187.12970050	    -14.49014115	      0.41649472	     -4.39399354	      0.21426155	      1.00063160	      0.18235098	     38.75009764	      4.48035550	     -3.24719524	     22.59332594	     22.59332594	      0.93244334	     -1.70966107	      0.00000000	      2.64759312	      4.71261863	     -0.93353621	     64.58583789	     64.58583789	    -16.23336505	    -20.12617034	      0.00000000	      3.28756526	      2.06536490	     -7.95116089
    187.13970050	    -14.86576273	     -0.60287148	     -4.63893746	      0.21065377	      0.99225223	      0.18319648	     39.86799342	      5.88402516	     -2.55548691	     26.69963406	     26.69963406	      0.66065538	     -5.15812391	      0.00000000	      6.09001371	      3.01136785	     -1.39191639	     70.75166164	     70.75166164	    -15.51574323	    -20.96082402	      0.00000000	      2.99113659	      3.36089444	     -7.33291814
    187.14970050	    -15.01765651	     -1.45677912	     -4.85521049	      0.20685997	      0.98375173	      0.18410284	     41.43345062	      7.08096437	     -2.24653309	     32.76329234	     32.76329234	      3.48360049	     -7.56355670	      0.00000000	      9.35654493	      1.48367732	     -1.55206936	     76.52682480	     76.52682480	    -14.67114235	    -21.63353507	      0.00000000	      2.40285665	      4.36293840	     -6.66791153
    187.15970050	    -14.87927139	     -1.94154479	     -4.99633484	      0.20341648	      0.97560942	      0.18452513	     42.53017056	      7.81584590	     -1.73994862	     38.68563969	     38.68563969	      6.27843433	     -9.43597966	      0.00000000	     12.33451161	      0.52137775	     -1.39044476	     81.67162782	     81.67162782	    -14.16427222	    -22.27298585	      0.00000000	      1.59910427	      4.91316049	     -5.97146038
    187.16970050	    -14.14094938	     -2.44365732	     -5.15035650	      0.20040531	      0.96932167	      0.18494165	     42.06391885	      8.55905029	     -0.98820753	     42.94906436	     42.94906436	      8.71240853	    -11.09583592	      0.00000000	     14.64393950	     -0.37562941	     -1.08525097	     86.11427497	     86.11427497	    -13.76180227	    -22.98522552	      0.00000000	      0.13586367	      5.43980275	     -4.97938444
    187.17970050	    -14.78172407	     -2.83919433	     -5.19935145	      0.19637931	      0.96195534	      0.18544739	     42.44973207	      9.11315701	     -0.56450209	     46.12881793	     46.12881793	     11.58505441	    -11.10314061	      0.00000000	     18.82527800	     -1.21806869	     -0.32232464	     90.68795675	     90.68795675	    -12.09960207	    -22.56583548	      0.00000000	      0.36095817	      5.95018680	     -3.70935844
    187.18970050	    -15.24798629	     -3.39332830	     -4.83196314	      0.19245136	      0.95598784	      0.18577017	     41.98316628	      9.51712854	     -0.82708709	     48.21525256	     48.21525256	     14.57972475	    -11.04413217	      0.00000000	     22.95642024	     -2.03190669	      1.07194708	     94.69325952	     94.69325952	    -10.26586491	    -21.64889184	      0.00000000	      0.41396179	      6.54468422	     -3.05835012
    187.19970050	    -15.90835172	     -4.00497640	     -4.29953937	      0.18872569	      0.95098185	      0.18561924	     41.34173846	      9.81480970	     -1.42829204	     49.63819708	     49.63819708	     17.31447971	    -10.80920038	      0.00000000	     27.38966799	     -2.70647984	      2.77817747	     98.02536863	     98.02536863	     -8.73267888	    -20.14210761	      0.00000000	      0.76945958	      7.27466765	     -2.53701822
    187.20970050	    -16.45624141	     -4.32762538	     -3.72422810	      0.18588481	      0.94730616	      0.18495841	     40.28974182	      9.80546713	     -1.83125549	     50.63239815	     50.63239815	     19.70155337	    -10.52324381	      0.00000000	     31.58484193	     -2.79584232	      4.44726933	    100.50976393	    100.50976393	     -7.54422814	    -18.59153356	      0.00000000	      1.18574865	      7.72122431	     -2.04192335
    187.21970050	    -16.87626785	     -4.18840406	     -3.32953045	      0.18380238	      0.94503828	      0.18430458	     38.75626957	      9.47040642	     -1.80344947	     51.13057892	     51.13057892	     21.85544087	    -10.15103413	      0.00000000	     35.43494355	     -2.30900521	      5.68282548	    102.10967020	    102.10967020	     -6.46432329	    -17.04173450	      0.00000000	      1.59064143	      7.59575590	     -1.33837958
    187.22970050	    -17.26426595	     -3.91529477	     -3.07156636	      0.18237250	      0.94425562	      0.18393877	     36.73121663	      9.13427083	     -1.44577193	     50.85320982	     50.85320982	     23.68101039	     -9.58268652	      0.00000000	     39.04266681	     -1.74658329	      6.58287193	    102.90108683	    102.90108683	     -5.39159724	    -15.34385316	      0.00000000	      2.07555912	      7.22851946	     -0.39515635
    187.23970050	    -17.61058701	     -3.54292962	     -2.93610698	      0.18155908	      0.94506526	      0.18404782	     34.28434947	      8.86424017	     -0.72621694	     49.86250083	     49.86250083	     24.93028911	     -9.21753887	      0.00000000	     42.35929044	     -1.19911411	      7.16187664	    102.90855356	    102.90855356	     -4.40698351	    -13.88593425	      0.00000000	      2.58963822	      6.64744453	      0.89864851
    187.24970050	    -17.98242810	     -3.02364483	     -2.97431840	      0.18131425	      0.94744774	      0.18459431	     31.58820171	      8.54100609	      0.21072276	     48.28003491	     48.28003491	     25.37269282	     -9.02685084	      0.00000000	     45.40433814	     -0.73719024	      7.27135739	    102.14149501	    102.14149501	     -3.60860360	    -12.86913616	      0.00000000	      3.19194494	      5.85510425	      2.59657011
    187.25970050	    -18.37097119	     -2.42224235	     -3.06141926	      0.18156158	      0.95132616	      0.18540012	     28.76966941	      8.10579851	      1.12701648	     46.29640781	     46.29640781	     24.96160094	     -8.89606927	      0.00000000	     48.16085539	     -0.35915083	      7.07390179	    100.63631275	    100.63631275	     -2.93480918	    -12.24051224	      0.00000000	      3.86348758	      4.90488184	      4.49537673
    187.26970050	    -18.65402842	     -1.77257367	     -3.12578847	      0.18245086	      0.95675040	      0.18625612	     25.70904006	      7.56748238	      2.07002827	     43.89213145	     43.89213145	     23.50426434	     -8.99926440	      0.00000000	     50.43939299	     -0.03129298	      6.61605711	     98.39216483	     98.39216483	     -2.26968149	    -12.14010447	      0.00000000	      4.44826007	      3.85512424	      6.33685995
    187.27970050	    -18.98056851	     -1.11934652	     -2.95609268	      0.18402192	      0.96320584	      0.18674951	     22.64159663	      6.85117305	      2.75099568	     41.15877462	     41.15877462	     21.05987679	     -9.33409890	      0.00000000	     52.39952897	      0.41389736	      6.07773979	     95.44397182	     95.44397182	     -2.12077877	    -12.70184135	      0.00000000	      5.18973092	      2.77901266	      7.88327111
